<mxfile host="app.diagrams.net" modified="2024-03-20T13:47:19.937Z" agent="Mozilla/5.0 (X11; Ubuntu; Linux x86_64; rv:123.0) Gecko/20100101 Firefox/123.0" etag="i5-gWdQ6F0XP3vdED2wm" version="24.0.7" type="github">
  <diagram name="Page-1" id="8WI3OzpYFhFL-At8U1Pr">
    <mxGraphModel dx="1364" dy="795" grid="1" gridSize="10" guides="1" tooltips="1" connect="1" arrows="1" fold="1" page="1" pageScale="1" pageWidth="850" pageHeight="1100" math="0" shadow="0">
      <root>
        <mxCell id="0" />
        <mxCell id="1" parent="0" />
        <mxCell id="6bYnMJUqCOhLsXYtT_LR-1" value="" style="rounded=0;whiteSpace=wrap;html=1;" vertex="1" parent="1">
          <mxGeometry x="365" y="240" width="120" height="150" as="geometry" />
        </mxCell>
        <mxCell id="6bYnMJUqCOhLsXYtT_LR-2" value="" style="rounded=0;whiteSpace=wrap;html=1;" vertex="1" parent="1">
          <mxGeometry x="360" y="60" width="60" height="70" as="geometry" />
        </mxCell>
        <mxCell id="6bYnMJUqCOhLsXYtT_LR-3" value="" style="rounded=0;whiteSpace=wrap;html=1;" vertex="1" parent="1">
          <mxGeometry x="220" y="260" width="60" height="60" as="geometry" />
        </mxCell>
        <mxCell id="6bYnMJUqCOhLsXYtT_LR-4" value="" style="rounded=0;whiteSpace=wrap;html=1;" vertex="1" parent="1">
          <mxGeometry x="365" y="460" width="120" height="60" as="geometry" />
        </mxCell>
        <mxCell id="6bYnMJUqCOhLsXYtT_LR-5" value="" style="rounded=0;whiteSpace=wrap;html=1;" vertex="1" parent="1">
          <mxGeometry x="430" y="60" width="60" height="70" as="geometry" />
        </mxCell>
        <mxCell id="6bYnMJUqCOhLsXYtT_LR-6" value="" style="rounded=0;whiteSpace=wrap;html=1;" vertex="1" parent="1">
          <mxGeometry x="500" y="60" width="60" height="70" as="geometry" />
        </mxCell>
        <mxCell id="6bYnMJUqCOhLsXYtT_LR-7" value="" style="rounded=0;whiteSpace=wrap;html=1;" vertex="1" parent="1">
          <mxGeometry x="290" y="60" width="60" height="70" as="geometry" />
        </mxCell>
        <mxCell id="6bYnMJUqCOhLsXYtT_LR-8" value="" style="whiteSpace=wrap;html=1;aspect=fixed;" vertex="1" parent="1">
          <mxGeometry x="600" y="250" width="60" height="60" as="geometry" />
        </mxCell>
      </root>
    </mxGraphModel>
  </diagram>
</mxfile>
